<?xml version="1.0" encoding="UTF-8"?>
<svg version="1.1" xmlns="http://www.w3.org/2000/svg" width="4443" height="4501">
    <path d="M0 0 C2.99729947 1.42490338 6.00321842 2.83056505 9.00976562 4.23583984 C23.57827664 11.08889445 37.78969529 18.4868101 51.83789062 26.34912109 C52.58377441 26.76307129 53.3296582 27.17702148 54.09814453 27.60351562 C79.17404541 41.59235781 103.74069796 58.35771445 125.36914062 77.23974609 C127.84445574 79.43928111 127.84445574 79.43928111 130.83789062 81.34912109 C130.83789062 82.00912109 130.83789062 82.66912109 130.83789062 83.34912109 C131.41539063 83.61724609 131.99289062 83.88537109 132.58789062 84.16162109 C134.89339105 85.37841298 136.85845255 86.65245989 138.83789062 88.34912109 C138.83789062 89.00912109 138.83789062 89.66912109 138.83789062 90.34912109 C139.49789062 90.34912109 140.15789062 90.34912109 140.83789062 90.34912109 C142.31835938 91.88818359 142.31835938 91.88818359 144.02539062 93.97412109 C146.28145547 96.63953379 148.48069781 98.98987808 151.21289062 101.16162109 C155.19545035 104.45233303 158.26113151 108.35542413 161.46679688 112.38818359 C163.77543991 115.27113486 166.17323358 118.05485022 168.58789062 120.84912109 C184.78189674 140.32705105 197.95752421 162.63767687 206.83789062 186.34912109 C207.1456543 187.15752441 207.45341797 187.96592773 207.77050781 188.79882812 C232.82211074 255.59001398 218.95433191 328.64320104 190.41259766 391.93017578 C180.78794453 412.82686451 169.9137099 432.77078247 157.83789062 452.34912109 C157.29003906 453.24195801 156.7421875 454.13479492 156.17773438 455.0546875 C146.17133866 471.31508054 135.34836089 487.02687401 124.16845703 502.49902344 C122.69863296 504.54275313 121.24266426 506.59598793 119.78710938 508.64990234 C112.9775863 518.2213515 105.84126873 527.41637195 98.36816406 536.47607422 C95.9801225 539.3990249 93.65805814 542.37220671 91.33789062 545.34912109 C86.85683216 551.08919817 82.28093502 556.74674149 77.67382812 562.38598633 C74.16944548 566.6839414 70.73633048 571.02968392 67.33789062 575.41162109 C62.92087979 581.0912135 58.27423075 586.53998344 53.53540039 591.95263672 C49.63594249 596.40916003 45.86402479 600.95191909 42.13476562 605.55224609 C37.96865115 610.62526984 33.66676413 615.58250989 29.38183594 620.55517578 C27.37693813 622.88471233 25.37915904 625.22029466 23.38134766 627.5559082 C5.50874582 648.4426333 5.50874582 648.4426333 -1.91210938 656.59912109 C-4.82506671 659.80652899 -7.58431439 663.08809169 -10.28710938 666.47412109 C-14.81456061 672.07763908 -19.7056103 677.29853042 -24.67041016 682.515625 C-28.95785553 687.0256768 -33.08447108 691.6492003 -37.16210938 696.34912109 C-42.40915495 702.24752405 -47.73433932 708.0739049 -53.07519531 713.88720703 C-55.95575985 717.02507252 -58.81711818 720.17898805 -61.66210938 723.34912109 C-66.78585567 729.05531812 -71.96924618 734.7059283 -77.16210938 740.34912109 C-77.63519531 740.86345703 -78.10828125 741.37779297 -78.59570312 741.90771484 C-85.55276984 749.46810442 -92.5479492 756.99231888 -99.56445312 764.49755859 C-102.01934912 767.1237264 -104.46937859 769.75432012 -106.91601562 772.38818359 C-107.53299316 773.05156738 -108.1499707 773.71495117 -108.78564453 774.3984375 C-109.9516986 775.65237721 -111.11681672 776.90718827 -112.28076172 778.16308594 C-115.62719999 781.75852412 -119.04627839 785.26155838 -122.55029297 788.70385742 C-124.23177269 790.42023002 -125.79542174 792.20476411 -127.34960938 794.03662109 C-130.90386998 798.16854933 -134.73529682 801.98343125 -138.63549805 805.78540039 C-141.37812576 808.48046544 -143.96784756 811.2447669 -146.47460938 814.16162109 C-151.18825136 819.61079842 -156.35590353 824.58999924 -161.49023438 829.63818359 C-162.24820313 830.38841797 -163.00617188 831.13865234 -163.78710938 831.91162109 C-164.79644531 832.90355469 -164.79644531 832.90355469 -165.82617188 833.91552734 C-167.771467 835.94214752 -169.60969735 838.00457773 -171.44335938 840.13037109 C-175.12967593 844.37195078 -179.04078066 848.33866157 -183.03710938 852.28662109 C-183.76526855 853.01099365 -184.49342773 853.73536621 -185.24365234 854.48168945 C-188.32267889 857.54454533 -191.4076926 860.6013442 -194.4921875 863.65869141 C-196.75926396 865.90756226 -199.02323903 868.15952348 -201.28710938 870.41162109 C-201.97272949 871.08894287 -202.65834961 871.76626465 -203.36474609 872.46411133 C-204.0223291 873.11839111 -204.67991211 873.7726709 -205.35742188 874.44677734 C-205.92477051 875.00888916 -206.49211914 875.57100098 -207.07666016 876.15014648 C-208.92355293 878.09757837 -210.67921204 880.08844491 -212.43360901 882.11863708 C-216.00774173 886.22423372 -219.76893717 890.09726773 -223.62280273 893.93920898 C-224.3327388 894.65089737 -225.04267487 895.36258575 -225.77412415 896.09584045 C-228.09757606 898.42365663 -230.424623 900.74783906 -232.75195312 903.07177734 C-234.38202765 904.70252646 -236.01195378 906.33342392 -237.64173889 907.96446228 C-241.04851792 911.37271094 -244.45708696 914.77915643 -247.86694336 918.18432617 C-252.22225732 922.53394332 -256.57306598 926.88803492 -260.9225378 931.24349308 C-264.28458986 934.60917061 -267.64903482 937.97244801 -271.01419258 941.33502007 C-272.61878271 942.93894642 -274.22263949 944.54360678 -275.82572746 946.1490345 C-278.07207115 948.39793741 -280.32162953 950.6435767 -282.57202148 952.88842773 C-283.22421661 953.54264709 -283.87641174 954.19686646 -284.54837036 954.87091064 C-288.36840934 958.67367401 -292.30944793 962.27506911 -296.38752079 965.79926205 C-298.45150274 967.6018664 -300.41054563 969.48348369 -302.33984375 971.42919922 C-303.05418579 972.14684448 -303.76852783 972.86448975 -304.5045166 973.60388184 C-305.24745972 974.35512329 -305.99040283 975.10636475 -306.75585938 975.88037109 C-307.54682007 976.67511841 -308.33778076 977.46986572 -309.15270996 978.28869629 C-311.65830461 980.80640541 -314.16061795 983.32733556 -316.66210938 985.84912109 C-319.96122617 989.17500299 -323.26375311 992.49744446 -326.56835938 995.81787109 C-327.31130249 996.56911255 -328.05424561 997.320354 -328.81970215 998.09436035 C-332.86477601 1002.15813923 -337.008449 1006.02237436 -341.35241699 1009.76428223 C-343.83533775 1011.93870113 -346.15764728 1014.24972874 -348.47460938 1016.59912109 C-348.93262939 1017.06092773 -349.39064941 1017.52273438 -349.86254883 1017.99853516 C-351.29827113 1019.44624832 -352.7306337 1020.89720966 -354.16210938 1022.34912109 C-359.7112778 1027.97750946 -365.25690486 1033.53573332 -371.26757812 1038.67724609 C-374.73018119 1041.73290405 -377.92979342 1045.05367396 -381.16210938 1048.34912109 C-385.71196886 1052.98784502 -390.33225222 1057.42468603 -395.25585938 1061.66552734 C-398.19442904 1064.26086244 -400.92341963 1067.04617065 -403.66210938 1069.84912109 C-407.69001369 1073.9278507 -411.76470713 1077.83486856 -416.13867188 1081.54443359 C-419.25771864 1084.32628612 -422.15800579 1087.32446964 -425.09179688 1090.29833984 C-428.33607748 1093.56965612 -431.69846102 1096.61890678 -435.20117188 1099.60693359 C-438.25302926 1102.31834474 -441.07355704 1105.25249256 -443.93945312 1108.15771484 C-446.58912377 1110.77013177 -449.3738374 1113.1821473 -452.19726562 1115.60302734 C-454.97635452 1118.07271469 -457.55071434 1120.72815431 -460.15820312 1123.37646484 C-462.74457089 1125.92249939 -465.47746218 1128.26933666 -468.22851562 1130.63427734 C-470.72642493 1132.84959489 -473.04235926 1135.2181028 -475.38085938 1137.59912109 C-477.88107123 1140.05546958 -480.53891454 1142.31221477 -483.19335938 1144.59912109 C-485.66855975 1146.7992992 -487.96972691 1149.14343157 -490.28808594 1151.50634766 C-492.09100517 1153.27920257 -493.9478298 1154.93592658 -495.86523438 1156.58349609 C-500.1543758 1160.31284149 -504.29018531 1164.18681868 -508.41210938 1168.09912109 C-514.32190733 1173.68502407 -520.26470326 1179.22689803 -526.27148438 1184.70849609 C-529.41213688 1187.5775246 -532.5384318 1190.4616454 -535.66210938 1193.34912109 C-541.3178023 1198.57460829 -546.99004208 1203.78173847 -552.66943359 1208.98144531 C-554.19025813 1210.37491261 -555.70958262 1211.76999861 -557.22851562 1213.16552734 C-561.83284885 1217.39435585 -566.44487533 1221.61315196 -571.09960938 1225.78662109 C-574.98581638 1229.27360298 -578.83049564 1232.80248502 -582.66210938 1236.34912109 C-588.11836542 1241.39862072 -593.62314658 1246.39034425 -599.16210938 1251.34912109 C-604.5654885 1256.19383097 -609.94571995 1261.06124803 -615.28710938 1265.97412109 C-619.15578759 1269.53165208 -623.06545062 1273.03201684 -627.03710938 1276.47412109 C-629.78034394 1278.89462218 -632.47093843 1281.37114519 -635.16210938 1283.84912109 C-639.09495779 1287.47002243 -643.0642495 1291.03871035 -647.10351562 1294.54052734 C-649.65167587 1296.7792336 -652.1562153 1299.06322321 -654.66210938 1301.34912109 C-658.42561458 1304.7817687 -662.22340288 1308.16467119 -666.06835938 1311.50537109 C-668.62629965 1313.75788566 -671.14389918 1316.05229201 -673.66210938 1318.34912109 C-677.44873935 1321.80240263 -681.26687257 1325.2101116 -685.13476562 1328.57177734 C-687.4970011 1330.64271596 -689.83006791 1332.74424957 -692.16210938 1334.84912109 C-697.49773574 1339.65926911 -702.87797818 1344.40892347 -708.34960938 1349.06396484 C-715.18932173 1354.88791607 -721.90731952 1360.80817253 -728.50585938 1366.90380859 C-733.03721614 1371.07532232 -737.69041446 1375.09591604 -742.37695312 1379.09130859 C-743.57632347 1380.11456844 -744.77553754 1381.13801146 -745.97460938 1382.16162109 C-746.58071045 1382.67885742 -747.18681152 1383.19609375 -747.8112793 1383.72900391 C-751.55262478 1386.93401489 -755.22317868 1390.20113613 -758.84960938 1393.53662109 C-762.32347247 1396.72648954 -765.86120962 1399.76961004 -769.53710938 1402.72412109 C-773.74025092 1406.11297881 -777.72416094 1409.66149546 -781.66210938 1413.34912109 C-786.44529694 1417.82825671 -791.37025625 1422.03363322 -796.48242188 1426.13818359 C-799.29464252 1428.4584706 -801.980082 1430.87983244 -804.66210938 1433.34912109 C-808.21881182 1436.62330533 -811.83372748 1439.75554542 -815.59960938 1442.78662109 C-819.59435191 1446.00855426 -823.40763046 1449.35569721 -827.16210938 1452.84912109 C-831.79459318 1457.15908547 -836.58333171 1461.19973277 -841.51367188 1465.16943359 C-844.13486056 1467.32669508 -846.65365218 1469.5622311 -849.16210938 1471.84912109 C-853.46202728 1475.76803362 -857.92130484 1479.44082979 -862.44335938 1483.09912109 C-865.08358667 1485.28413679 -867.62940658 1487.540835 -870.16210938 1489.84912109 C-874.46202728 1493.76803362 -878.92130484 1497.44082979 -883.44335938 1501.09912109 C-886.08358667 1503.28413679 -888.62940658 1505.540835 -891.16210938 1507.84912109 C-894.48200424 1510.8719453 -897.85975049 1513.77424271 -901.34960938 1516.59912109 C-905.82425118 1520.22175071 -910.19605834 1523.94386512 -914.53710938 1527.72412109 C-920.83489738 1533.20772521 -927.18308866 1538.62617995 -933.56933594 1544.00634766 C-935.72635754 1545.82480547 -937.87988121 1547.64737878 -940.03320312 1549.47021484 C-941.6565073 1550.84437881 -943.28040056 1552.21784448 -944.90429688 1553.59130859 C-947.09909079 1555.44823887 -949.29153908 1557.30789079 -951.48242188 1559.16943359 C-956.48733917 1563.4187803 -961.50394563 1567.64592801 -966.59960938 1571.78662109 C-970.8460332 1575.2418626 -975.01507231 1578.77609944 -979.16210938 1582.34912109 C-984.17530426 1586.66841066 -989.24748257 1590.90009228 -994.38476562 1595.07177734 C-997.50607305 1597.63116163 -1000.58660967 1600.235059 -1003.66210938 1602.84912109 C-1008.51164989 1606.97019901 -1013.41371902 1611.01903592 -1018.34960938 1615.03662109 C-1021.48010789 1617.61058654 -1024.57376571 1620.22489013 -1027.66210938 1622.84912109 C-1034.31244589 1628.49770053 -1041.06331943 1634.01735617 -1047.83398438 1639.52099609 C-1052.84103625 1643.60188809 -1057.80405632 1647.72728171 -1062.72460938 1651.91162109 C-1067.32264663 1655.82008744 -1071.97666299 1659.64144068 -1076.70507812 1663.39208984 C-1081.22995819 1666.99616761 -1085.6900404 1670.67989199 -1090.16210938 1674.34912109 C-1091.99521099 1675.84940426 -1093.82854365 1677.34940517 -1095.66210938 1678.84912109 C-1098.35420885 1681.05140275 -1101.04603551 1683.25400746 -1103.73632812 1685.45849609 C-1111.16808597 1691.54609445 -1118.62354359 1697.60427999 -1126.08154297 1703.65966797 C-1128.77935741 1705.85033635 -1131.47653999 1708.04178162 -1134.17358398 1710.23339844 C-1135.50108129 1711.31202056 -1136.82871841 1712.39047063 -1138.15649414 1713.46875 C-1141.51797483 1716.19884906 -1144.87724183 1718.93159381 -1148.23242188 1721.66943359 C-1155.03865892 1727.21898352 -1161.87824685 1732.71458687 -1168.80322266 1738.11523438 C-1173.48680621 1741.78357882 -1178.08006523 1745.55503259 -1182.66210938 1749.34912109 C-1190.06567048 1755.47723695 -1197.57889713 1761.4457205 -1205.16210938 1767.34912109 C-1207.45579923 1769.13821232 -1209.74741743 1770.92991617 -1212.03710938 1772.72412109 C-1212.60896973 1773.17223145 -1213.18083008 1773.6203418 -1213.77001953 1774.08203125 C-1218.29646491 1777.64149191 -1222.7647649 1781.26923737 -1227.22460938 1784.91162109 C-1233.06002052 1789.67539289 -1238.96727947 1794.32187114 -1244.95507812 1798.89208984 C-1248.36065134 1801.49314746 -1251.73247087 1804.13608351 -1255.09960938 1806.78662109 C-1255.68403809 1807.24657471 -1256.2684668 1807.70652832 -1256.87060547 1808.18041992 C-1258.63478623 1809.5695482 -1260.39847827 1810.95929508 -1262.16210938 1812.34912109 C-1275.97360863 1823.22752241 -1289.83426941 1834.0419047 -1303.78320312 1844.74365234 C-1306.2842912 1846.6672778 -1308.77396598 1848.60500074 -1311.25976562 1850.54833984 C-1320.00006507 1857.37912449 -1328.80565626 1864.1074911 -1337.69726562 1870.74023438 C-1343.25968009 1874.89805309 -1348.75892183 1879.12765517 -1354.22460938 1883.41162109 C-1361.00355538 1888.72024606 -1367.8847551 1893.86813435 -1374.83496094 1898.94995117 C-1380.94102482 1903.42344771 -1386.96662701 1907.99496379 -1392.97460938 1912.59912109 C-1399.22154203 1917.38140779 -1405.49711285 1922.09550743 -1411.92602539 1926.63012695 C-1416.80436892 1930.07421031 -1421.61094194 1933.61091849 -1426.41210938 1937.16162109 C-1440.45287226 1947.5346847 -1454.61540468 1957.73053231 -1468.90234375 1967.76171875 C-1471.31869081 1969.4591138 -1473.73254379 1971.16002451 -1476.14648438 1972.86083984 C-1480.35411124 1975.82287463 -1484.57547306 1978.76458981 -1488.80224609 1981.69921875 C-1491.03005752 1983.25679682 -1493.23979814 1984.83712638 -1495.44726562 1986.42333984 C-1507.1882213 1994.74626103 -1507.1882213 1994.74626103 -1513.16992188 1994.71240234 C-1517.87919343 1993.85365283 -1521.5320941 1992.37768406 -1524.58398438 1988.57958984 C-1526.97314159 1984.4312929 -1527.71587945 1980.9146078 -1526.74804688 1976.21240234 C-1524.59583551 1969.36837022 -1519.48186292 1966.02041878 -1514.03710938 1961.71240234 C-1510.54159836 1958.8390543 -1507.42813478 1955.70131557 -1504.27148438 1952.46630859 C-1501.70636752 1949.89169131 -1499.00697566 1947.52149132 -1496.25195312 1945.15380859 C-1492.16114658 1941.62118686 -1488.17340206 1937.97143994 -1484.16210938 1934.34912109 C-1474.66992188 1925.77738814 -1474.66992188 1925.77738814 -1470.28710938 1921.97412109 C-1466.31958214 1918.52060548 -1462.45363297 1914.9590817 -1458.58447266 1911.39648438 C-1455.19766377 1908.28327065 -1451.76313393 1905.23667571 -1448.28710938 1902.22412109 C-1445.54387519 1899.80362034 -1442.85326369 1897.32711467 -1440.16210938 1894.84912109 C-1436.25229342 1891.24899353 -1432.3034447 1887.70494504 -1428.28710938 1884.22412109 C-1425.54387519 1881.80362034 -1422.85326369 1879.32711467 -1420.16210938 1876.84912109 C-1416.25229342 1873.24899353 -1412.3034447 1869.70494504 -1408.28710938 1866.22412109 C-1405.00702357 1863.32992774 -1401.79942881 1860.35693217 -1398.58178711 1857.39379883 C-1395.8273751 1854.86171993 -1393.05468439 1852.35876841 -1390.22460938 1849.91162109 C-1386.63251753 1846.79947472 -1383.14670082 1843.58028771 -1379.66210938 1840.34912109 C-1373.88620812 1834.99616913 -1368.06355835 1829.72136457 -1361.97460938 1824.72412109 C-1359.14572677 1822.40277099 -1359.14572677 1822.40277099 -1356.66210938 1819.84912109 C-1353.96723549 1817.15424721 -1351.08885808 1814.78807835 -1348.16210938 1812.34912109 C-1346.49404156 1810.68385675 -1344.82755994 1809.01700297 -1343.16210938 1807.34912109 C-1341.23376678 1805.54578829 -1339.29984085 1803.75329067 -1337.34960938 1801.97412109 C-1336.81899902 1801.48862793 -1336.28838867 1801.00313477 -1335.74169922 1800.50292969 C-1332.95280065 1797.95809152 -1330.14422501 1795.44247153 -1327.28710938 1792.97412109 C-1323.49408568 1789.68894994 -1319.83075981 1786.27152756 -1316.16210938 1782.84912109 C-1311.90277818 1778.87568103 -1307.6187689 1774.95273316 -1303.20898438 1771.14599609 C-1299.99952232 1768.32852941 -1296.86682122 1765.42749547 -1293.72412109 1762.53613281 C-1290.5539529 1759.62093259 -1287.36799045 1756.72513659 -1284.16210938 1753.84912109 C-1280.47380506 1750.5391044 -1276.81140462 1747.20202688 -1273.16210938 1743.84912109 C-1268.70875451 1739.75746002 -1264.22551083 1735.70089163 -1259.72460938 1731.66162109 C-1256.33812616 1728.60552649 -1252.97966123 1725.51926497 -1249.62084961 1722.43286133 C-1246.50577813 1719.57309905 -1243.37359263 1716.73396751 -1240.22460938 1713.91162109 C-1237.40461245 1711.38366269 -1234.60309829 1708.8382664 -1231.82617188 1706.26318359 C-1231.24988037 1705.72878662 -1230.67358887 1705.19438965 -1230.07983398 1704.64379883 C-1228.95678501 1703.60061675 -1227.83511885 1702.55594324 -1226.71508789 1701.50952148 C-1224.39164047 1699.35056591 -1222.07441412 1697.2795238 -1219.58789062 1695.30615234 C-1216.91496778 1693.14973633 -1214.57300175 1690.79354984 -1212.16210938 1688.34912109 C-1210.35899478 1686.67230513 -1208.54587977 1685.00619929 -1206.72460938 1683.34912109 C-1202.0937518 1679.12729825 -1197.4954226 1674.87248453 -1192.91210938 1670.59912109 C-1188.75588891 1666.72843822 -1184.56650337 1662.91688137 -1180.26757812 1659.20458984 C-1175.7080544 1655.18645669 -1171.282587 1651.01694518 -1166.82470703 1646.88671875 C-1164.25697726 1644.51204003 -1161.67892798 1642.14869819 -1159.09960938 1639.78662109 C-1158.60662354 1639.33488525 -1158.1136377 1638.88314941 -1157.60571289 1638.41772461 C-1155.16260865 1636.17951297 -1152.71778055 1633.94322071 -1150.27148438 1631.70849609 C-1144.00299004 1625.97634352 -1137.77444896 1620.20447455 -1131.58862305 1614.38305664 C-1128.50677402 1611.49332288 -1125.39097915 1608.65858597 -1122.20117188 1605.88818359 C-1118.13256363 1602.35026338 -1114.20339472 1598.67902696 -1110.28710938 1594.97412109 C-1102.34988098 1587.5003268 -1094.32000306 1580.1572033 -1086.04882812 1573.05224609 C-1084.62211804 1571.76436701 -1083.23992784 1570.42693956 -1081.88085938 1569.06787109 C-1078.6476453 1565.83465702 -1075.32092997 1562.71445597 -1071.97460938 1559.59912109 C-1071.30679443 1558.97642334 -1070.63897949 1558.35372559 -1069.95092773 1557.7121582 C-1066.40434536 1554.4120862 -1062.83840164 1551.13822133 -1059.22460938 1547.91162109 C-1054.84715015 1544.00031393 -1050.56367347 1539.9948907 -1046.28710938 1535.97412109 C-1037.36928711 1527.59070016 -1028.41077424 1519.26028458 -1019.19726562 1511.20068359 C-1017.71839214 1509.85522096 -1016.27897701 1508.46598873 -1014.86523438 1507.05224609 C-1011.59578221 1503.78279392 -1008.23200918 1500.62596063 -1004.84960938 1497.47412109 C-1004.18461426 1496.85351807 -1003.51961914 1496.23291504 -1002.83447266 1495.59350586 C-998.85502044 1491.89093165 -994.82814617 1488.25945834 -990.70898438 1484.71240234 C-989.35405251 1483.5182831 -988.06416872 1482.25118044 -986.78710938 1480.97412109 C-983.48332251 1477.67033423 -979.99655819 1474.59495588 -976.51367188 1471.48193359 C-974.81372655 1469.94012272 -973.1599148 1468.34692652 -971.53710938 1466.72412109 C-969.4744956 1464.66150731 -967.36525598 1462.7574228 -965.16210938 1460.84912109 C-962.0271868 1458.12945879 -959.06201571 1455.32152509 -956.16210938 1452.34912109 C-951.64867755 1447.73778402 -947.05579953 1443.33588607 -942.16210938 1439.13037109 C-940.07873859 1437.27486899 -938.11929731 1435.33689009 -936.16210938 1433.34912109 C-932.96309797 1430.10012514 -929.62286474 1427.10405574 -926.16601562 1424.13427734 C-923.35559993 1421.63065166 -920.74712889 1418.94429777 -918.10742188 1416.26318359 C-915.80620862 1413.99893762 -913.39406339 1411.91680541 -910.90039062 1409.86865234 C-909.49405374 1408.63929268 -908.1508939 1407.33790562 -906.83007812 1406.01708984 C-903.52736912 1402.71438084 -900.08338313 1399.58997066 -896.62304688 1396.45458984 C-894.30332452 1394.3430477 -892.02938745 1392.21639917 -889.81054688 1389.99755859 C-885.50389336 1385.69090508 -881.02544074 1381.56613044 -876.57617188 1377.40771484 C-872.55796338 1373.64064438 -868.6013007 1369.83214096 -864.74414062 1365.89990234 C-862.52319192 1363.72282423 -860.15247658 1361.74261231 -857.77539062 1359.73974609 C-855.44324265 1357.72946842 -853.31241447 1355.55187265 -851.16210938 1353.34912109 C-846.83510909 1348.93025244 -842.47158394 1344.68042668 -837.73632812 1340.70068359 C-835.41378293 1338.70663735 -833.30066486 1336.53859456 -831.16210938 1334.34912109 C-826.29181199 1329.38498369 -821.39516819 1324.54632471 -816.08398438 1320.05224609 C-813.67200754 1317.91480321 -811.42551563 1315.64315991 -809.16210938 1313.34912109 C-797.89560346 1301.93104784 -797.89560346 1301.93104784 -792.01367188 1296.98193359 C-789.6212028 1294.87211909 -787.40266076 1292.61954649 -785.16210938 1290.34912109 C-779.20470104 1284.31453345 -773.28812768 1278.35358019 -766.82226562 1272.85693359 C-764.9195994 1271.19868083 -764.9195994 1271.19868083 -762.66210938 1268.34912109 C-760.0983288 1265.2725844 -757.37200978 1262.85397989 -754.33398438 1260.26708984 C-752.0096054 1258.21444582 -749.83770344 1256.05847437 -747.66210938 1253.84912109 C-744.2676481 1250.40783967 -740.77332872 1247.173999 -737.08398438 1244.05224609 C-732.80472517 1240.26005704 -728.8811737 1236.06153782 -724.85351562 1232.00537109 C-723.33201714 1230.47649635 -721.81003678 1228.94810315 -720.2878418 1227.41992188 C-719.24657732 1226.37361614 -718.20621043 1225.32641637 -717.16674805 1224.27832031 C-715.64808038 1222.74741887 -714.12611263 1221.21986338 -712.60351562 1219.69287109 C-711.70318604 1218.78730469 -710.80285645 1217.88173828 -709.87524414 1216.94873047 C-707.93516776 1215.08983249 -706.02147376 1213.37231903 -703.95092773 1211.67529297 C-701.24772491 1209.42053358 -699.34255881 1207.09226716 -697.16210938 1204.34912109 C-695.49544271 1203.01578776 -693.82877604 1201.68245443 -692.16210938 1200.34912109 C-691.26492188 1199.20443359 -691.26492188 1199.20443359 -690.34960938 1198.03662109 C-688.52119338 1195.79028144 -686.87068104 1194.1755363 -684.68060303 1192.32827759 C-679.44100529 1187.79040659 -674.57209525 1182.89946488 -669.67871094 1177.99511719 C-668.64975729 1176.96752145 -667.62059166 1175.94013794 -666.5912323 1174.91294861 C-663.81853531 1172.14477783 -661.04897133 1169.37349282 -658.28012943 1166.60146666 C-655.37272561 1163.69151627 -652.46286593 1160.78402326 -649.55340576 1157.87612915 C-644.67296537 1152.99750291 -639.79462576 1148.11678347 -634.91748047 1143.23486328 C-629.28549027 1137.59742276 -623.64989445 1131.96360592 -618.01243043 1126.33163965 C-613.16029585 1121.48404679 -608.31011733 1116.6345033 -603.46156096 1111.78333151 C-600.57076623 1108.89098103 -597.67930778 1105.99930274 -594.78607941 1103.10938644 C-592.06856726 1100.39476872 -589.35352411 1097.67770528 -586.64034462 1094.9587574 C-585.64632761 1093.96342162 -584.65146511 1092.96892937 -583.65568352 1091.97535896 C-582.29330318 1090.61572465 -580.93432329 1089.25268558 -579.57550049 1087.88949585 C-578.8152721 1087.12889044 -578.05504372 1086.36828503 -577.27177811 1085.58463097 C-575.09701963 1083.34275723 -575.09701963 1083.34275723 -573.06986618 1080.72159767 C-570.73762487 1077.82123434 -568.04173302 1075.69983428 -565.16210938 1073.34912109 C-562.64117854 1070.94823458 -560.33677356 1068.56745133 -558.16210938 1065.84912109 C-555.98950234 1063.1333623 -553.63809124 1060.79432418 -551.16210938 1058.34912109 C-548.74301964 1055.95572203 -546.32713994 1053.55911513 -543.91210938 1051.16162109 C-543.2753125 1050.53320312 -542.63851562 1049.90478516 -541.98242188 1049.25732422 C-541.3765625 1048.6546875 -540.77070313 1048.05205078 -540.14648438 1047.43115234 C-539.59702148 1046.88692627 -539.04755859 1046.3427002 -538.48144531 1045.78198242 C-537.05484785 1044.36531479 -537.05484785 1044.36531479 -536.16210938 1042.34912109 C-535.50210938 1042.34912109 -534.84210937 1042.34912109 -534.16210938 1042.34912109 C-534.16210938 1041.68912109 -534.16210938 1041.02912109 -534.16210938 1040.34912109 C-533.48148438 1039.81287109 -532.80085938 1039.27662109 -532.09960938 1038.72412109 C-529.69954454 1036.78364314 -527.95046244 1035.04645076 -525.97460938 1032.72412109 C-520.93793214 1026.82779216 -515.34667937 1021.48576278 -509.82617188 1016.04833984 C-506.36891857 1012.54546296 -503.01698003 1008.94979415 -499.66210938 1005.34912109 C-495.55899805 1000.94538577 -491.42210505 996.6021102 -487.16210938 992.34912109 C-485.31862213 990.37821635 -483.48525934 988.4010688 -481.66210938 986.41162109 C-480.60888847 985.26693845 -479.55549675 984.12241296 -478.50195312 982.97802734 C-477.68573486 982.09074951 -477.68573486 982.09074951 -476.85302734 981.18554688 C-473.98259694 978.0681086 -471.10490679 974.95744205 -468.22460938 971.84912109 C-467.69351563 971.27427979 -467.16242188 970.69943848 -466.61523438 970.10717773 C-464.29646442 967.60606147 -461.96378111 965.15373976 -459.53320312 962.75927734 C-456.46119122 959.63665569 -453.88098445 956.22724594 -451.22460938 952.75146484 C-449.16210938 950.34912109 -449.16210938 950.34912109 -446.64257812 948.33740234 C-444.08936612 946.29081193 -442.39270377 944.23703967 -440.47460938 941.59912109 C-438.71289062 939.17724609 -438.71289062 939.17724609 -437.16210938 937.34912109 C-436.50210938 937.34912109 -435.84210938 937.34912109 -435.16210938 937.34912109 C-435.16210938 936.68912109 -435.16210938 936.02912109 -435.16210938 935.34912109 C-433.51842797 933.65978187 -431.84782178 931.99652185 -430.16210938 930.34912109 C-429.50210938 929.52412109 -428.84210938 928.69912109 -428.16210938 927.84912109 C-425.99858926 925.14472095 -423.60974867 922.79676039 -421.16210938 920.34912109 C-420.44023437 919.42099609 -419.71835938 918.49287109 -418.97460938 917.53662109 C-418.07742188 916.45380859 -418.07742188 916.45380859 -417.16210938 915.34912109 C-416.50210938 915.34912109 -415.84210938 915.34912109 -415.16210938 915.34912109 C-414.93523437 914.81287109 -414.70835938 914.27662109 -414.47460938 913.72412109 C-412.70640848 910.52451948 -410.62540735 908.05874886 -408.16210938 905.34912109 C-407.50210938 905.34912109 -406.84210938 905.34912109 -406.16210938 905.34912109 C-406.16210938 904.68912109 -406.16210938 904.02912109 -406.16210938 903.34912109 C-405.50210938 903.34912109 -404.84210938 903.34912109 -404.16210938 903.34912109 C-403.91847656 902.78708984 -403.67484375 902.22505859 -403.42382812 901.64599609 C-401.92030001 898.90892325 -400.09511189 896.89116168 -397.97460938 894.59912109 C-397.16636719 893.71740234 -396.358125 892.83568359 -395.52539062 891.92724609 C-394.74550781 891.07646484 -393.965625 890.22568359 -393.16210938 889.34912109 C-391.99049876 888.02012995 -390.82337545 886.6871607 -389.66210938 885.34912109 C-386.16451446 881.32606591 -382.57733749 877.38681154 -378.98242188 873.45068359 C-377.12534271 871.48188688 -377.12534271 871.48188688 -376.16210938 869.34912109 C-375.50210938 869.34912109 -374.84210938 869.34912109 -374.16210938 869.34912109 C-373.90558594 868.77419922 -373.6490625 868.19927734 -373.38476562 867.60693359 C-372.04570758 865.13416826 -370.49060071 863.30065855 -368.59960938 861.22412109 C-366.08531721 858.48874065 -366.08531721 858.48874065 -364.16210938 855.34912109 C-363.50210938 855.34912109 -362.84210938 855.34912109 -362.16210938 855.34912109 C-361.89785156 854.76646484 -361.63359375 854.18380859 -361.36132812 853.58349609 C-360.11428441 851.26001399 -358.73897786 849.55325004 -356.97460938 847.59912109 C-356.34554687 846.89529297 -355.71648437 846.19146484 -355.06835938 845.46630859 C-354.43929687 844.76763672 -353.81023437 844.06896484 -353.16210938 843.34912109 C-344.64256392 833.70198874 -336.18565336 823.99477184 -328.20898438 813.89208984 C-325.81116462 810.91311912 -323.33362963 808.00601777 -320.84960938 805.09912109 C-316.58092044 800.09307968 -312.47099575 794.98519288 -308.43066406 789.79370117 C-304.88131187 785.24037144 -301.25373491 780.7561565 -297.59960938 776.28662109 C-291.98403392 769.40694411 -286.54367292 762.41242325 -281.16210938 755.34912109 C-279.60005205 753.32794557 -278.03754057 751.30712096 -276.47460938 749.28662109 C-266.84458541 736.78998534 -257.35757578 724.16935642 -248.16210938 711.34912109 C-247.78280273 710.82189453 -247.40349609 710.29466797 -247.01269531 709.75146484 C-194.60508402 636.88704249 -147.63599419 559.52953991 -88.16210938 345.34912109 C-88.07622559 344.67600388 -87.9903418 344.00288666 -87.90185547 343.30937195 C-87.27077688 338.07233147 -86.99017265 332.91483826 -86.95898438 327.64208984 C-86.94846291 326.44339012 -86.94846291 326.44339012 -86.93772888 325.22047424 C-86.92033904 322.65913176 -86.91387772 320.09802043 -86.91210938 317.53662109 C-86.91143463 316.66162964 -86.91075989 315.78663818 -86.9100647 314.88513184 C-86.92569061 302.14665616 -87.26314125 289.80761339 -90.16210938 277.34912109 C-90.33371582 276.57874512 -90.50532227 275.80836914 -90.68212891 275.01464844 C-94.81008405 256.8538592 -101.33416512 239.72722403 -110.16210938 223.34912109 C-110.77699219 222.19154297 -111.391875 221.03396484 -112.02539062 219.84130859 C-117.99411534 208.99132867 -124.93662162 198.37450547 -133.02539062 188.97412109 C-135.16210938 186.34912109 -135.16210938 186.34912109 -135.16210938 184.34912109 C-135.82210937 184.34912109 -136.48210937 184.34912109 -137.16210938 184.34912109 C-141.16210938 179.87853286 -141.16210938 179.87853286 -141.16210938 177.34912109 C-142.15210937 177.01912109 -143.14210938 176.68912109 -144.16210938 176.34912109 C-145.49414062 174.99365234 -145.49414062 174.99365234 -146.97460938 173.16162109 C-154.35198315 164.46573797 -162.63239161 156.25708339 -171.34179688 148.89599609 C-172.5985457 147.82802928 -173.83190235 146.73213337 -175.04492188 145.61474609 C-193.14366095 128.96115348 -214.20909348 115.10950381 -235.16210938 102.34912109 C-236.03625488 101.81593262 -236.91040039 101.28274414 -237.81103516 100.73339844 C-254.86386472 90.40287908 -272.46789459 81.22736053 -290.28051758 72.29315186 C-292.00845986 71.42621001 -293.73477926 70.5560355 -295.4609375 69.68554688 C-385.45540465 24.52874864 -485.3616395 -3.06104463 -1343.78710938 -111.21337891 C-1345.47094989 -111.25347082 -1347.15478786 -111.29366955 -1348.83862305 -111.33398438 C-1350.03523811 -111.3625502 -1350.03523811 -111.3625502 -1351.25602722 -111.39169312 C-1352.79445284 -111.42849377 -1354.33287462 -111.46545547 -1355.87129211 -111.50259399 C-1359.18431398 -111.58216656 -1362.4972075 -111.65751629 -1365.81054688 -111.72314453 C-1368.80358645 -111.78535141 -1371.79491643 -111.86982203 -1374.78710938 -111.96337891 C-1375.57424316 -111.97377197 -1376.36137695 -111.98416504 -1377.17236328 -111.99487305 C-1382.61707775 -112.20162654 -1385.76350103 -113.63342249 -1390.16210938 -116.65087891 C-1393.51711583 -121.30459754 -1394.06021556 -126.08262053 -1393.16210938 -131.65087891 C-1390.89167905 -136.19173955 -1388.61923076 -138.35173942 -1384.16210938 -140.65087891 C-1381.52075195 -141.26342773 -1381.52075195 -141.26342773 -1378.55664062 -141.60791016 C-1377.38190186 -141.74769287 -1376.20716309 -141.88747559 -1374.99682617 -142.03149414 C-1373.65618803 -142.17639129 -1372.31544333 -142.32030507 -1370.97460938 -142.46337891 C-1369.50560913 -142.62746814 -1368.03661528 -142.79161467 -1366.56762695 -142.95581055 C-1288.9296996 -151.46601578 -1210.88796865 -156.59372047 0 0 Z "
          fill="#c69d77" transform="translate(2834.162109375,1334.65087890625)"/>
    <path d="M0 0 C1.08643799 0.53214111 2.17287598 1.06428223 3.29223633 1.61254883 C19.82619259 9.7858755 36.2889569 18.27669398 51.5 28.75 C52.27859375 29.28270508 53.0571875 29.81541016 53.859375 30.36425781 C71.36297887 42.37146486 71.36297887 42.37146486 79.3984375 49.015625 C81.66064407 50.88257615 83.97988224 52.65954379 86.3125 54.4375 C89.63061537 57.00467347 92.57022299 59.74103983 95.5 62.75 C96.59659582 63.65508507 97.70094975 64.5508448 98.8125 65.4375 C99.699375 66.200625 100.58625 66.96375 101.5 67.75 C101.5 68.41 101.5 69.07 101.5 69.75 C102.16 69.75 102.82 69.75 103.5 69.75 C103.5 70.41 103.5 71.07 103.5 71.75 C104.16 71.75 104.82 71.75 105.5 71.75 C105.5 72.41 105.5 73.07 105.5 73.75 C106.16 73.75 106.82 73.75 107.5 73.75 C108.91438406 75.32286684 110.25604401 76.96139996 111.5625 78.625 C114.5105559 82.32295883 117.50404783 85.87455065 120.75 89.3125 C155.52572191 127.8249546 174.20780667 179.75559032 179.5 230.75 C179.5942627 231.63163818 179.68852539 232.51327637 179.78564453 233.42163086 C185.77922081 295.95746918 171.31769169 358.21753005 150.5 416.75 C150.14938507 417.73676727 150.14938507 417.73676727 149.79168701 418.74346924 C142.97712415 437.85375596 135.06288394 456.37253227 126.5 474.75 C126.00918945 475.80606445 125.51837891 476.86212891 125.01269531 477.95019531 C113.15480942 503.34389408 100.32149973 528.16455367 85.9765625 552.24169922 C83.93637464 555.70745486 81.99932451 559.22587725 80.0625 562.75 C73.99530411 573.68616363 67.18805132 584.18771122 60.5 594.75 C59.87834961 595.73468262 59.25669922 596.71936523 58.61621094 597.73388672 C54.60329418 604.08926654 50.56812585 610.42980702 46.5 616.75 C46.05350098 617.44383789 45.60700195 618.13767578 45.14697266 618.85253906 C38.60109331 628.97377006 31.50586959 638.65620601 24.30566406 648.31933594 C22.546061 650.68799577 20.798079 653.06470194 19.0546875 655.4453125 C12.29159121 664.67753693 5.4228124 673.81997512 -1.53417969 682.90698242 C-5.96404551 688.7033837 -10.31794323 694.54941014 -14.625 700.4375 C-19.75866671 707.45098824 -25.02569198 714.34459143 -30.38671875 721.18554688 C-34.19880534 726.05559458 -37.93524678 730.97427071 -41.625 735.9375 C-45.94302732 741.73857978 -50.38974446 747.41557946 -54.93457031 753.0402832 C-58.66723216 757.6722432 -62.28443178 762.38235174 -65.875 767.125 C-70.89370067 773.74217154 -76.09161826 780.18479664 -81.39868164 786.57226562 C-85.10540756 791.03837534 -88.74258978 795.5488403 -92.3125 800.125 C-96.95369043 806.07404033 -101.7008197 811.9273386 -106.5 817.75 C-108.00071175 819.58275076 -109.50070638 821.41608895 -111 823.25 C-111.74507812 824.16007812 -112.49015625 825.07015625 -113.2578125 826.0078125 C-114.7340486 827.81324411 -116.20806736 829.62049141 -117.6796875 831.4296875 C-122.19784103 836.97688668 -126.78120407 842.46193861 -131.41357422 847.91357422 C-134.31219839 851.33020732 -137.17140579 854.77486997 -140 858.25 C-143.74620845 862.85248466 -147.56522787 867.38722411 -151.40966797 871.9074707 C-154.35958904 875.38243023 -157.25664406 878.89453073 -160.125 882.4375 C-163.69932521 886.83226641 -167.43857678 891.03703483 -171.25390625 895.22265625 C-173.56187598 897.81962393 -175.75555863 900.48404013 -177.9375 903.1875 C-181.80174764 907.96572621 -185.8814871 912.49226018 -190.04296875 917.01171875 C-192.39376133 919.63160046 -194.61250459 922.31552219 -196.8125 925.0625 C-201.44421018 930.8048334 -206.44823463 936.150643 -211.4921875 941.52734375 C-214.3447641 944.57061941 -217.1092621 947.67944134 -219.8359375 950.8359375 C-223.33294433 954.85831625 -226.92922746 958.793198 -230.5 962.75 C-231.221875 963.554375 -231.94375 964.35875 -232.6875 965.1875 C-238.11644612 971.2368971 -243.59800099 977.23671886 -249.09716797 983.22216797 C-250.47356272 984.72120702 -251.84841739 986.22164076 -253.22265625 987.72265625 C-285.81061693 1023.3169297 -285.81061693 1023.3169297 -295.375 1032.5625 C-297.21329652 1034.45486406 -298.92540822 1036.3894542 -300.64356995 1038.38938904 C-304.3767875 1042.66597577 -308.30909183 1046.7002485 -312.32788086 1050.70727539 C-313.07683121 1051.45797806 -313.82578156 1052.20868073 -314.59742737 1052.98213196 C-317.05073978 1055.43981187 -319.5076521 1057.89385527 -321.96484375 1060.34765625 C-323.68459931 1062.06808631 -325.40420647 1063.78866472 -327.12367249 1065.50938416 C-330.71876497 1069.1059467 -334.31564896 1072.70070528 -337.91381836 1076.29418945 C-342.51126869 1080.88594294 -347.10421464 1085.4821716 -351.69582272 1090.07976627 C-355.24316788 1093.63073571 -358.79290465 1097.17930666 -362.34335518 1100.72717094 C-364.03726025 1102.42041191 -365.73043103 1104.11438779 -367.4228344 1105.80912971 C-369.7937107 1108.18256325 -372.16779959 1110.55273776 -374.54272461 1112.92211914 C-375.57712173 1113.95955261 -375.57712173 1113.95955261 -376.63241577 1115.01794434 C-380.54987715 1118.91859683 -384.57101898 1122.63790453 -388.76729679 1126.23760128 C-391.12800196 1128.29815468 -393.31473357 1130.50567232 -395.5 1132.75 C-398.97472342 1136.31863486 -402.60337123 1139.60812853 -406.36328125 1142.8671875 C-409.99615995 1146.06837129 -413.49137033 1149.41392589 -417 1152.75 C-421.81255977 1157.3258765 -426.66945635 1161.81817881 -431.68701172 1166.16894531 C-434.10368985 1168.27646048 -436.45726063 1170.44924232 -438.8125 1172.625 C-442.43523905 1175.93336914 -446.11692891 1179.11012358 -449.9375 1182.1875 C-453.93226968 1185.40945506 -457.74527182 1188.75682222 -461.5 1192.25 C-466.0793303 1196.50527949 -470.7928572 1200.52322457 -475.6640625 1204.4453125 C-478.20248107 1206.50821464 -480.69877304 1208.60885086 -483.18481445 1210.73388672 C-490.46189967 1216.95330048 -497.9275733 1222.89548001 -505.5 1228.75 C-506.22928711 1229.31638184 -506.95857422 1229.88276367 -507.70996094 1230.46630859 C-510.01172028 1232.25262541 -512.31765399 1234.033407 -514.625 1235.8125 C-515.3478418 1236.37308105 -516.07068359 1236.93366211 -516.81542969 1237.51123047 C-517.83878418 1238.29651123 -517.83878418 1238.29651123 -518.8828125 1239.09765625 C-519.78604248 1239.79387085 -519.78604248 1239.79387085 -520.70751953 1240.50415039 C-525.85164247 1244.07953303 -530.33511088 1244.53887207 -536.5 1243.75 C-540.90608743 1241.58701163 -543.6987497 1239.35319521 -545.5 1234.75 C-546.20706657 1230.61473185 -546.45074845 1226.69963607 -544.57421875 1222.8515625 C-542.98957409 1220.71065614 -541.26188482 1218.74855591 -539.5 1216.75 C-537.56273003 1214.37059034 -535.65919527 1211.96445896 -533.75 1209.5625 C-532.68905817 1208.23937795 -531.62785963 1206.9164617 -530.56640625 1205.59375 C-521.61217006 1194.39749058 -513.07353822 1182.88038226 -504.48632812 1171.40234375 C-502.48859707 1168.73477367 -500.48711086 1166.0700642 -498.484375 1163.40625 C-492.09073144 1154.90061102 -485.71393788 1146.38831515 -479.5 1137.75 C-477.45950706 1134.91581962 -475.4176552 1132.08262237 -473.375 1129.25 C-472.82255615 1128.48357178 -472.2701123 1127.71714355 -471.70092773 1126.92749023 C-467.65123508 1121.31892978 -463.55305209 1115.74784334 -459.4375 1110.1875 C-454.52590217 1103.54653297 -449.70721928 1096.84908486 -444.96411133 1090.08691406 C-441.39611451 1085.00377286 -437.77278305 1079.96362706 -434.125 1074.9375 C-428.29385866 1066.89430504 -422.58654638 1058.76855609 -416.90234375 1050.62109375 C-413.78456836 1046.15242893 -410.64640843 1041.69853342 -407.5 1037.25 C-401.39591622 1028.61500426 -395.33314324 1019.9513293 -389.2734375 1011.28515625 C-387.53766367 1008.8038408 -385.80037486 1006.32359426 -384.0625 1003.84375 C-371.28012359 985.60244209 -358.54632003 967.32994173 -345.99072266 948.93164062 C-343.62572012 945.47051016 -341.25091491 942.01614515 -338.875 938.5625 C-338.42713135 937.9113623 -337.9792627 937.26022461 -337.51782227 936.58935547 C-335.73417438 933.99654681 -333.95008594 931.40404143 -332.16601562 928.81152344 C-319.56041717 910.49200043 -307.01812325 892.1293895 -294.5 873.75 C-293.85611328 872.80479492 -293.21222656 871.85958984 -292.54882812 870.88574219 C-284.03642932 858.38711104 -275.5450809 845.87429703 -267.0690918 833.35095215 C-266.08357264 831.89487194 -265.09790171 830.43889444 -264.11206055 828.98303223 C-257.53302366 819.26618761 -250.99863604 809.52078299 -244.5 799.75 C-243.78658447 798.67991699 -243.07316895 797.60983398 -242.33813477 796.50732422 C-241.06678849 794.60022038 -239.7979914 792.6914156 -238.53125 790.78125 C-237.15447744 788.72668172 -235.75791168 786.68526459 -234.34375 784.65625 C-225.50989943 771.89624363 -218.07043171 758.28019866 -210.5 744.75 C-210.15652527 744.13695007 -209.81305054 743.52390015 -209.45916748 742.89227295 C-200.32020453 726.57550948 -191.48083398 710.12530974 -182.92138672 693.49560547 C-181.25679879 690.28022316 -179.56005873 687.08292312 -177.85766602 683.88745117 C-165.95700765 661.51381618 -154.78261701 638.7497465 -144.29150391 615.68359375 C-143.02639564 612.90214127 -141.75429006 610.1240081 -140.47802734 607.34765625 C-124.10823737 571.71696983 -109.03313308 535.55561257 -95.5 498.75 C-94.9975484 497.3936006 -94.49476946 496.03732242 -93.99169922 494.68115234 C-61.96721196 408.24048257 -37.54183326 318.14075794 -31.04833984 13.59545898 C-32.18534651 8.94971119 -31.79295078 5.47017066 -30 1.0625 C-22.36681714 -10.84419016 -10.06939805 -5.01150127 0 0 Z "
          fill="#c69d77" transform="translate(2090.5,1501.25)"/>
    <path d="M0 0 C15.75149952 -0.34917117 31.30779721 0.69662653 47 2 C48.16418457 2.09120117 49.32836914 2.18240234 50.52783203 2.27636719 C142.63287293 9.5852734 242.37102444 30.05644413 375.84716797 134.06982422 C379.10810531 137.90084848 382.10433675 141.8883514 385 146 C385.41217773 146.57314941 385.82435547 147.14629883 386.24902344 147.73681641 C413.80617938 186.28515983 423.88944502 231.81237548 416.69726562 278.61401367 C407.52115856 331.9051167 379.04302267 380.06294397 346 422 C345.00419922 423.27037109 345.00419922 423.27037109 343.98828125 424.56640625 C336.33647314 434.23593252 328.34069913 443.61812096 320.04296875 452.73828125 C318.18181575 454.79871641 316.36828758 456.89114318 314.5625 459 C311.11133256 462.97164513 307.39345094 466.64321882 303.625 470.3125 C301.5582752 472.42843253 299.63812396 474.56429719 297.71875 476.80859375 C293.91427241 481.19671279 289.76593039 485.12853378 285.5 489.0625 C280.74896508 493.46931862 276.0590692 497.90828611 271.49658203 502.51049805 C269.78877741 504.21022333 268.02027338 505.81114371 266.1875 507.375 C263.14416912 509.99694661 260.15647726 512.66909667 257.1875 515.375 C252.94612584 519.19866307 248.59701944 522.84917787 244.15234375 526.43359375 C241.80409008 528.33145586 239.49333903 530.2688958 237.19140625 532.22265625 C227.63404667 540.29273606 217.72235406 547.48063364 207.32568359 554.42529297 C203.60558842 556.94414809 199.96432901 559.57118905 196.3125 562.1875 C189.8013776 566.82063027 183.14818596 571.13565732 176.33984375 575.31640625 C172.24559734 577.83279089 168.20327226 580.42615252 164.16064453 583.02441406 C152.27858754 590.65142418 140.21606184 597.92196742 128 605 C127.1248877 605.50772949 126.24977539 606.01545898 125.34814453 606.53857422 C113.0140722 613.67935294 100.56494049 620.59654562 88.02392578 627.36669922 C85.93255054 628.49630525 83.8424631 629.62829759 81.75341797 630.76220703 C57.0882069 644.14700974 32.10343121 656.76772841 6.5765686 668.4410553 C2.76195423 670.18659657 -1.0435188 671.95054617 -4.84353638 673.72763062 C-38.21419358 689.32442799 -72.28112229 703.28934915 -106.5625 716.75 C-107.48261871 717.11236755 -108.40273743 717.47473511 -109.35073853 717.8480835 C-121.3925774 722.58077627 -133.51748646 726.99409962 -145.75805664 731.18603516 C-152.21065159 733.40145901 -158.60248694 735.7745999 -164.9921875 738.1640625 C-177.59745757 742.8257627 -190.31500435 747.18256929 -203.0625 751.4375 C-203.80136444 751.68445618 -204.54022888 751.93141235 -205.30148315 752.18585205 C-224.3668742 758.54507973 -243.56242444 764.4928603 -262.76036072 770.43721008 C-268.08133554 772.08631503 -273.39411466 773.75869498 -278.70100403 775.45254517 C-286.71115027 778.00618674 -294.73708504 780.38023192 -302.875 782.5 C-310.85599251 784.61361527 -318.81786667 786.77206636 -326.75 789.0625 C-340.9567441 793.15560158 -355.21960652 797.03336936 -369.52734375 800.7578125 C-370.50919144 801.01354034 -371.49103912 801.26926819 -372.50263977 801.53274536 C-436.50900306 818.18630555 -436.50900306 818.18630555 -465.94421387 824.47975159 C-472.21277668 825.82182467 -478.47010377 827.21207185 -484.7265625 828.609375 C-561.85077067 845.8044694 -561.85077067 845.8044694 -593.25 850.4375 C-599.52054972 851.39540354 -605.72813483 852.51863671 -611.9375 853.8125 C-634.99813684 858.56103126 -658.33609351 861.99382853 -681.6472168 865.24804688 C-689.74100946 866.37944999 -697.81346783 867.59310115 -705.875 868.9375 C-722.62208487 871.70919235 -739.47822826 873.7970052 -756.30892944 875.98957825 C-760.36048932 876.5176865 -764.41032895 877.05278423 -768.45605469 877.62402344 C-769.13401093 877.71859833 -769.81196716 877.81317322 -770.51046753 877.91061401 C-772.27554245 878.15807646 -774.03990806 878.41058441 -775.80419922 878.66357422 C-779.22443624 879.02362667 -782.56337982 879.05703258 -786 879 C-783.25576273 876.25576273 -780.07853733 875.59684051 -776.453125 874.48828125 C-775.67042236 874.24316803 -774.88771973 873.99805481 -774.08129883 873.74551392 C-772.37243756 873.21085909 -770.66271979 872.67893607 -768.95227051 872.14938354 C-764.31824562 870.71424255 -759.69063239 869.25869708 -755.0625 867.8046875 C-754.08919739 867.49939621 -753.11589478 867.19410492 -752.11309814 866.87956238 C-739.81031823 863.01199281 -727.55793685 858.98991323 -715.30383301 854.97134399 C-713.40108914 854.34739541 -711.49821878 853.72383241 -709.59521484 853.10067749 C-707.87609567 852.53761475 -706.15730691 851.97354142 -704.43896484 851.40811157 C-699.95233225 849.93824007 -695.4529214 848.52207563 -690.9364624 847.14640808 C-684.58391622 845.19460828 -678.27188367 843.13788937 -671.96875 841.03271484 C-670.84300568 840.65805084 -669.71726135 840.28338684 -668.55740356 839.89736938 C-664.87110134 838.67005701 -661.18552692 837.44057589 -657.5 836.2109375 C-654.89769792 835.34357809 -652.29527603 834.47657833 -649.69287109 833.60952759 C-644.24247881 831.7933343 -638.79250581 829.97588725 -633.34277344 828.15771484 C-627.12651121 826.08382864 -620.90954371 824.01206821 -614.69218826 821.94146192 C-609.28901835 820.14194248 -603.88625742 818.34119897 -598.48380661 816.53952181 C-595.28685202 815.47336188 -592.08973951 814.40768381 -588.89233398 813.34287643 C-565.83932884 805.66413173 -542.84221787 797.82558543 -519.94564819 789.69104004 C-509.04570084 785.81968237 -498.13031634 781.99874586 -487.1875 778.25 C-452.2420287 766.25630794 -417.28695793 754.04654138 -382.8984375 740.52734375 C-373.99629099 737.02897935 -365.01885184 733.73198428 -356.03125 730.4609375 C-343.55528612 725.91849353 -331.11036655 721.34354636 -318.80859375 716.34375 C-314.00148124 714.39298646 -309.17666295 712.48944867 -304.34765625 710.59375 C-285.996075 703.38767669 -267.69891885 696.08520401 -249.51318359 688.46826172 C-245.95638392 686.98177157 -242.39469924 685.50752019 -238.83203125 684.03515625 C-192.14893647 664.68161193 -146.05878301 643.77956281 -100.95361328 620.98046875 C-98.76487656 619.88199753 -96.56851973 618.79973095 -94.37109375 617.71875 C-81.72338777 611.48125083 -69.32938684 604.84309491 -57 598 C-55.95521484 597.42137207 -54.91042969 596.84274414 -53.83398438 596.24658203 C-41.42949967 589.36905054 -29.07132771 582.44862499 -17 575 C-16.15743652 574.48421387 -15.31487305 573.96842773 -14.44677734 573.43701172 C16.39844247 554.53326015 46.40129394 534.1601643 73.91015625 510.6171875 C76.76542868 508.18099681 79.69000217 505.83967203 82.625 503.5 C87.56741171 499.4856394 92.00898085 495.09145179 96.453125 490.546875 C98.54930699 488.45069301 100.66492662 486.52194142 102.9375 484.625 C108.27547948 480.06365278 112.87701688 474.77879415 117.57324219 469.57519531 C118.83311344 468.18424916 120.10693281 466.80596428 121.3828125 465.4296875 C137.11593378 448.34317944 150.33498878 429.03714043 162 409 C162.3604541 408.38511719 162.7209082 407.77023437 163.09228516 407.13671875 C169.9415643 395.31835473 174.98089248 382.6779919 180 370 C180.30711914 369.23429687 180.61423828 368.46859375 180.93066406 367.6796875 C188.43653503 348.75106838 192.26031703 328.45981728 194.70629883 308.30981445 C194.9403947 306.46876621 195.22361906 304.63398373 195.5234375 302.80249023 C196.07035047 298.43867388 196.16202941 294.18919252 196.16796875 289.796875 C196.17129715 288.91960754 196.17462555 288.04234009 196.17805481 287.13848877 C196.18310012 285.28276082 196.18546388 283.42702386 196.18530273 281.57128906 C196.18746108 278.79996716 196.20556383 276.02906264 196.22460938 273.2578125 C196.27908696 256.6657754 194.95308118 240.54247337 191.375 224.3125 C190.9869519 222.53939453 190.9869519 222.53939453 190.59106445 220.73046875 C181.87554418 182.38936336 163.6859738 145.58364672 139 115 C138.34773438 114.16726562 137.69546875 113.33453125 137.0234375 112.4765625 C135.04427334 109.95984758 133.02804041 107.47747794 131 105 C130.23429687 104.04738281 129.46859375 103.09476563 128.6796875 102.11328125 C121.90501479 93.85173473 114.46812942 86.25314888 106.9375 78.6875 C106.17771851 77.91995392 106.17771851 77.91995392 105.40258789 77.13690186 C99.34714495 71.03275102 93.16465808 65.3238686 86.4362793 59.95043945 C83.88033364 57.90419736 81.42287155 55.77372653 78.97241211 53.60400391 C55.26683858 32.69242274 27.53647425 16.30608227 0 1 C0 0.67 0 0.34 0 0 Z "
          fill="#A1540A" transform="translate(2684,2340)"/>
</svg>
